<?xml version="1.0" encoding="utf-8"?>
<!-- Generator: Adobe Illustrator 23.0.0, SVG Export Plug-In . SVG Version: 6.00 Build 0)  -->
<svg version="1.1" id="Camada_1" xmlns="http://www.w3.org/2000/svg" xmlns:xlink="http://www.w3.org/1999/xlink" x="0px" y="0px"
	 viewBox="0 0 385 385" style="enable-background:new 0 0 385 385;" xml:space="preserve">
<style type="text/css">
	.st0{fill:#FC823F;}
</style>
<g>
	<g>
		<g>
			<path class="st0" d="M249.13,157.99c-0.66,0-1.31-0.02-2-0.08c-10.98-1-17.12-11.32-24.23-23.27
				c-5.07-8.53-10.81-18.14-19.21-25.58c0.4-2.06,0.78-4.17,1.2-6.28c1.43-7.9,2.95-16.06,5.73-22.69l1.46-3.4l-3.33-1.65
				c-16.94-8.46-32.91-12.42-50.28-12.42c-10.23,0-21.01,1.31-33.46,4.13c4.23-3.92,8.63-7.81,12.96-11.65
				c18.85-16.66,36.73-32.5,36.93-46.89c28.11,18.62,54.47,36.8,76.52,58.35c1.76,1.68,3.48,3.4,5.16,5.16
				c24.18,24.72,34.87,45.7,37.35,73.88c-6.77,1.31-13.66,3.77-20.35,6.18c-2.73,0.99-5.48,1.96-8.15,2.84
				C260.68,156.17,254.49,157.99,249.13,157.99L249.13,157.99z"/>
		</g>
		<g>
			<path class="st0" d="M283.88,258.05c-4.49-5.22-10.07-9.98-15.52-14.61c-2.2-1.89-4.38-3.76-6.47-5.65
				c-4.58-4.12-9.59-9.08-12.03-14.38c-4.55-9.97,1.18-20.4,7.85-32.46c4.86-8.71,10.27-18.51,12.42-29.6
				c2.01-0.68,4.06-1.41,6.1-2.15c7.56-2.68,15.31-5.48,22.43-6.37l3.63-0.45l-0.23-3.72c-1.86-29.57-12.02-52.36-34.77-77.14
				c5.45,1.72,11.01,3.61,16.5,5.45c17.39,5.9,33.81,11.47,46.24,11.47c5.17,0,9.34-0.94,12.64-2.86
				c-2.03,35.01-4.45,66.07-11.94,95.92c-0.63,2.38-1.25,4.76-1.91,7.15C319.54,221.96,306.83,241.73,283.88,258.05L283.88,258.05z"
				/>
		</g>
		<g>
			<path class="st0" d="M225.52,315.51c-15.02,0-28.92-3.19-43.55-10.01c2.27-6.52,3.63-13.74,4.9-20.77
				c0.51-2.83,1.07-5.67,1.64-8.42c1.3-6.03,3.01-12.85,6.38-17.59c6.22-9.17,17.53-9.35,31.9-9.55c9.91-0.15,21.02-0.31,31.65-3.93
				c1.55,1.41,3.2,2.81,4.86,4.2c6.09,5.22,12.38,10.61,16.69,16.34l2.24,2.97l3.07-2.08c24.52-16.51,39.07-36.81,49.03-68.95
				c1.27,5.59,2.42,11.37,3.56,17.03c4.99,24.84,9.75,48.43,22.12,55.7c-33.33,16.87-60.46,29.57-88.82,37.61
				c-2.31,0.66-4.64,1.28-7.02,1.89C249.26,313.73,237,315.51,225.52,315.51L225.52,315.51z"/>
		</g>
		<g>
			<path class="st0" d="M49.69,188.28c-1.27-5.6-2.42-11.36-3.58-17.04c-4.96-24.84-9.69-48.4-22.12-55.65
				C57.31,98.73,84.44,86.02,112.85,78c2.33-0.68,4.65-1.3,7-1.89c14.9-3.84,27.2-5.63,38.63-5.63c15.02,0,28.93,3.2,43.57,10.03
				c-2.27,6.53-3.58,13.75-4.88,20.74c-0.52,2.87-1.06,5.71-1.65,8.46c-1.17,5.67-2.99,12.8-6.4,17.6
				c-6.22,9.16-17.55,9.32-31.9,9.53c-9.87,0.15-21.03,0.33-31.66,3.92c-1.56-1.38-3.23-2.81-4.89-4.22
				c-6.09-5.21-12.39-10.6-16.69-16.32l-2.23-2.99l-3.08,2.08C74.18,135.89,59.7,156.16,49.69,188.28L49.69,188.28z"/>
		</g>
		<g>
			<path class="st0" d="M116.74,314.49c-5.46-1.72-11.04-3.6-16.48-5.46c-17.44-5.91-33.85-11.48-46.28-11.48
				c-5.14,0-9.3,0.95-12.65,2.88c2.03-34.99,4.43-66.02,11.98-95.93c0.6-2.36,1.22-4.75,1.88-7.14
				c9.25-33.25,21.99-53.07,44.95-69.45c4.52,5.27,10.07,10.03,15.53,14.69c2.2,1.88,4.37,3.73,6.46,5.61
				c4.58,4.14,9.57,9.05,12.05,14.38c4.57,10-1.21,20.41-7.88,32.49c-4.83,8.72-10.26,18.5-12.42,29.57
				c-2.01,0.7-4.05,1.43-6.09,2.15c-7.51,2.71-15.3,5.49-22.39,6.37l-3.68,0.46l0.22,3.71C83.8,266.94,94.01,289.72,116.74,314.49
				L116.74,314.49z"/>
		</g>
		<g>
			<path class="st0" d="M209.13,377.8c-28.16-18.6-54.53-36.8-76.55-58.33c-1.75-1.7-3.47-3.41-5.18-5.16
				c-24.17-24.71-34.86-45.72-37.35-73.9c6.79-1.3,13.67-3.78,20.37-6.17c2.76-0.99,5.47-1.96,8.12-2.84
				c4.78-1.56,10.97-3.38,16.34-3.38c0.66,0,1.31,0.03,1.99,0.09c11,1,17.14,11.34,24.24,23.26c5.1,8.56,10.82,18.18,19.25,25.64
				c-0.4,2.08-0.79,4.2-1.17,6.32c-1.48,7.86-2.99,16.01-5.77,22.59l-1.47,3.42l3.33,1.67c16.94,8.45,32.89,12.39,50.26,12.39
				c10.23,0,20.99-1.33,33.46-4.13c-4.22,3.92-8.66,7.83-12.96,11.64C227.12,347.61,209.23,363.46,209.13,377.8L209.13,377.8z"/>
		</g>
	</g>
</g>
</svg>
